<?xml version="1.0" encoding="UTF-8" standalone="no"?>
<!-- Created with Inkscape (http://www.inkscape.org/) -->

<svg
   width="1500"
   height="500"
   viewBox="0 0 1500 500"
   version="1.1"
   id="svg1"
   inkscape:version="1.3.2 (091e20e, 2023-11-25, custom)"
   sodipodi:docname="bbggithub.svg"
   inkscape:export-filename="bbgvercel.png"
   inkscape:export-xdpi="96"
   inkscape:export-ydpi="96"
   xmlns:inkscape="http://www.inkscape.org/namespaces/inkscape"
   xmlns:sodipodi="http://sodipodi.sourceforge.net/DTD/sodipodi-0.dtd"
   xmlns="http://www.w3.org/2000/svg"
   xmlns:svg="http://www.w3.org/2000/svg">
  <sodipodi:namedview
     id="namedview1"
     pagecolor="#505050"
     bordercolor="#ffffff"
     borderopacity="1"
     inkscape:showpageshadow="0"
     inkscape:pageopacity="0"
     inkscape:pagecheckerboard="1"
     inkscape:deskcolor="#505050"
     inkscape:document-units="px"
     inkscape:zoom="0.51720994"
     inkscape:cx="501.7305"
     inkscape:cy="472.72873"
     inkscape:window-width="2160"
     inkscape:window-height="1346"
     inkscape:window-x="-11"
     inkscape:window-y="-11"
     inkscape:window-maximized="1"
     inkscape:current-layer="svg1" />
  <defs
     id="defs1" />
  <rect
     style="fill:#211f21;paint-order:markers fill stroke;fill-opacity:1"
     id="rect1"
     width="1500"
     height="500"
     x="0"
     y="0" />
  <g
     id="g1"
     transform="translate(70.393112)">
    <text
       xml:space="preserve"
       style="font-style:normal;font-variant:normal;font-weight:normal;font-stretch:normal;font-size:86.6667px;line-height:0.8;font-family:'Product Sans Black';-inkscape-font-specification:'Product Sans Black, ';text-align:center;text-anchor:middle;fill:#e6e1e3;fill-opacity:1;paint-order:markers fill stroke"
       x="722.48737"
       y="348.61334"
       id="text3"><tspan
         sodipodi:role="line"
         id="tspan3"
         x="722.48737"
         y="348.61334">GITHUB</tspan></text>
    <text
       xml:space="preserve"
       style="font-style:normal;font-variant:normal;font-weight:normal;font-stretch:normal;font-size:86.6667px;line-height:0.8;font-family:'Product Sans Black';-inkscape-font-specification:'Product Sans Black, ';text-align:center;text-anchor:middle;fill:#e6e1e3;fill-opacity:1;paint-order:markers fill stroke"
       x="791.12769"
       y="281.02667"
       id="text2"><tspan
         sodipodi:role="line"
         id="tspan2"
         x="791.12769"
         y="281.02667">GAMES ON</tspan></text>
    <text
       xml:space="preserve"
       style="font-style:normal;font-variant:normal;font-weight:normal;font-stretch:normal;font-size:86.6667px;line-height:0.8;font-family:'Product Sans Black';-inkscape-font-specification:'Product Sans Black, ';text-align:center;text-anchor:middle;fill:#e6e1e3;fill-opacity:1;paint-order:markers fill stroke"
       x="770.63092"
       y="213.44003"
       id="text1"><tspan
         sodipodi:role="line"
         id="tspan1"
         x="770.63092"
         y="213.44003">BILLY BOB</tspan></text>
    <path
       d="m 430.79422,150.69359 c -46.09523,5.01035 -83.17182,42.08694 -88.18217,87.18009 -5.01035,47.0973 22.04554,89.18424 63.13042,105.21736 3.00621,1.00207 6.01242,-1.00207 6.01242,-5.01035 v -16.03312 c 0,0 -4.00828,1.00207 -9.01863,1.00207 -14.02898,0 -20.04141,-12.02484 -21.04348,-19.03933 -1.00207,-4.00828 -3.00621,-7.01449 -6.01242,-10.0207 -3.00621,-1.00207 -4.00828,-1.00207 -4.00828,-2.00414 0,-2.00414 3.00621,-2.00414 4.00828,-2.00414 6.01242,0 11.02277,7.01449 13.02692,10.0207 5.01035,8.01656 11.02277,10.0207 14.02898,10.0207 4.00828,0 7.01449,-1.00207 9.01863,-2.00414 1.00207,-7.01449 4.00828,-14.02898 10.0207,-18.03726 -23.04761,-5.01035 -40.08281,-18.03726 -40.08281,-40.0828 0,-11.02278 5.01035,-22.04555 12.02485,-30.06211 -1.00207,-2.00414 -2.00414,-7.01449 -2.00414,-14.02898 0,-4.00828 0,-10.0207 3.00621,-16.03312 0,0 14.02898,0 28.05796,13.02691 5.01035,-2.00414 12.02484,-3.00621 19.03933,-3.00621 7.01449,0 14.02898,1.00207 20.0414,3.00621 13.02691,-13.02691 28.05797,-13.02691 28.05797,-13.02691 2.00414,6.01242 2.00414,12.02484 2.00414,16.03312 0,8.01656 -1.00207,12.02484 -2.00414,14.02898 7.01449,8.01656 12.02484,18.03726 12.02484,30.06211 0,22.04554 -17.03519,35.07245 -40.08281,40.0828 6.01242,5.01035 10.0207,14.02898 10.0207,23.04761 v 26.05382 c 0,3.00621 3.00621,6.01242 7.0145,5.01035 37.07659,-15.03105 63.13041,-51.10557 63.13041,-93.19251 0,-60.12421 -51.10557,-107.22151 -111.22978,-100.20701 z"
       id="path1"
       style="fill:#e6e1e3;fill-opacity:1;stroke-width:10.0207" />
  </g>
</svg>
