<?xml version="1.0" encoding="UTF-8" standalone="no"?>
<!-- Created with Inkscape (http://www.inkscape.org/) -->

<svg
   width="1500"
   height="500"
   viewBox="0 0 1500 500"
   version="1.1"
   id="svg1"
   inkscape:version="1.3.2 (091e20e, 2023-11-25, custom)"
   sodipodi:docname="credits.svg"
   inkscape:export-filename="emulated.png"
   inkscape:export-xdpi="96"
   inkscape:export-ydpi="96"
   xmlns:inkscape="http://www.inkscape.org/namespaces/inkscape"
   xmlns:sodipodi="http://sodipodi.sourceforge.net/DTD/sodipodi-0.dtd"
   xmlns="http://www.w3.org/2000/svg"
   xmlns:svg="http://www.w3.org/2000/svg">
  <sodipodi:namedview
     id="namedview1"
     pagecolor="#505050"
     bordercolor="#ffffff"
     borderopacity="1"
     inkscape:showpageshadow="0"
     inkscape:pageopacity="0"
     inkscape:pagecheckerboard="1"
     inkscape:deskcolor="#505050"
     inkscape:document-units="px"
     inkscape:zoom="0.51720994"
     inkscape:cx="199.14544"
     inkscape:cy="639.00551"
     inkscape:window-width="2160"
     inkscape:window-height="1346"
     inkscape:window-x="-11"
     inkscape:window-y="-11"
     inkscape:window-maximized="1"
     inkscape:current-layer="svg1" />
  <defs
     id="defs1" />
  <rect
     style="fill:#211f21;paint-order:markers fill stroke;fill-opacity:1"
     id="rect1"
     width="1500"
     height="500"
     x="0"
     y="0" />
  <g
     id="g1"
     transform="translate(31.315766)">
    <text
       xml:space="preserve"
       style="font-style:normal;font-variant:normal;font-weight:normal;font-stretch:normal;font-size:120px;line-height:0.8;font-family:'Product Sans Black';-inkscape-font-specification:'Product Sans Black, ';text-align:center;text-anchor:middle;fill:#e6e1e3;fill-opacity:1;paint-order:markers fill stroke"
       x="808.80426"
       y="292.95999"
       id="text1"><tspan
         sodipodi:role="line"
         id="tspan1"
         x="808.80426"
         y="292.95999"
         style="font-size:120px">CREDITS</tspan></text>
    <path
       d="m 402.02423,350 q -8.25,0 -14.125,-5.875 -5.875,-5.875 -5.875,-14.125 V 170 q 0,-8.25 5.875,-14.125 5.875,-5.875 14.125,-5.875 h 120 q 8.25,0 14.125,5.875 5.875,5.875 5.875,14.125 v 160 q 0,8.25 -5.875,14.125 -5.875,5.875 -14.125,5.875 z m 0,-20 h 120 V 170 h -20 v 70 l -25,-15 -25,15 v -70 h -50 z m 0,0 V 170 Z m 50,-90 25,-15 25,15 -25,-15 z"
       id="path1"
       style="fill:#e6e1e3;fill-opacity:1;stroke-width:0.25" />
  </g>
</svg>
