<?xml version="1.0" encoding="UTF-8" standalone="no"?>
<!-- Created with Inkscape (http://www.inkscape.org/) -->

<svg
   width="1500"
   height="500"
   viewBox="0 0 1500 500"
   version="1.1"
   id="svg1"
   inkscape:version="1.3.2 (091e20e, 2023-11-25, custom)"
   sodipodi:docname="flash.svg"
   inkscape:export-filename="flash.png"
   inkscape:export-xdpi="96"
   inkscape:export-ydpi="96"
   xmlns:inkscape="http://www.inkscape.org/namespaces/inkscape"
   xmlns:sodipodi="http://sodipodi.sourceforge.net/DTD/sodipodi-0.dtd"
   xmlns="http://www.w3.org/2000/svg"
   xmlns:svg="http://www.w3.org/2000/svg">
  <sodipodi:namedview
     id="namedview1"
     pagecolor="#505050"
     bordercolor="#ffffff"
     borderopacity="1"
     inkscape:showpageshadow="0"
     inkscape:pageopacity="0"
     inkscape:pagecheckerboard="1"
     inkscape:deskcolor="#505050"
     inkscape:document-units="px"
     inkscape:zoom="0.51720995"
     inkscape:cx="516.23137"
     inkscape:cy="565.53437"
     inkscape:window-width="2160"
     inkscape:window-height="1346"
     inkscape:window-x="-11"
     inkscape:window-y="-11"
     inkscape:window-maximized="1"
     inkscape:current-layer="svg1" />
  <defs
     id="defs1" />
  <rect
     style="fill:#211f21;fill-opacity:1;paint-order:markers fill stroke"
     id="rect1"
     width="1500"
     height="500"
     x="0"
     y="0" />
  <g
     id="g1"
     transform="translate(86.715788)">
    <text
       xml:space="preserve"
       style="font-style:normal;font-variant:normal;font-weight:normal;font-stretch:normal;font-size:120px;line-height:0.8;font-family:'Product Sans Black';-inkscape-font-specification:'Product Sans Black, ';text-align:center;text-anchor:middle;fill:#e6e1e3;fill-opacity:1;paint-order:markers fill stroke"
       x="773.40411"
       y="348.07999"
       id="text2"
       inkscape:label="text2"><tspan
         sodipodi:role="line"
         id="tspan1-8"
         x="773.40411"
         y="348.07999">GAMES</tspan></text>
    <text
       xml:space="preserve"
       style="font-style:normal;font-variant:normal;font-weight:normal;font-stretch:normal;font-size:120px;line-height:0.8;font-family:'Product Sans Black';-inkscape-font-specification:'Product Sans Black, ';text-align:center;text-anchor:middle;fill:#e6e1e3;fill-opacity:1;paint-order:markers fill stroke"
       x="744.42419"
       y="237.84"
       id="text1"><tspan
         sodipodi:role="line"
         id="tspan1"
         x="744.42419"
         y="237.84"
         style="font-size:120px">FLASH</tspan></text>
    <path
       id="path1"
       style="fill:#e6e1e3;fill-opacity:1;stroke-width:0.25"
       d="m 528.74003,150 c -13.66665,0 -26.58335,2.625 -38.75,7.875 -12.16666,5.25 -22.79167,12.37501 -31.875,21.375 -9.08333,8.99999 -16.25,19.58334 -21.5,31.75 -5.25,12.16665 -7.875,25.16668 -7.875,39 0,13.66665 2.625,26.58334 7.875,38.75 5.25,12.16665 12.41667,22.79167 21.5,31.875 9.08333,9.08332 19.70834,16.25 31.875,21.5 12.16665,5.25 25.08335,7.875 38.75,7.875 13.83332,0 26.83334,-2.625 39,-7.875 12.16665,-5.25 22.75001,-12.41668 31.75,-21.5 8.99999,-9.08333 16.125,-19.70835 21.375,-31.875 5.25,-12.16666 7.875,-25.08335 7.875,-38.75 0,-13.83332 -2.625,-26.83335 -7.875,-39 -5.25,-12.16666 -12.37501,-22.75001 -21.375,-31.75 -8.99999,-8.99999 -19.58335,-16.125 -31.75,-21.375 -12.16666,-5.25 -25.16668,-7.875 -39,-7.875 z m 0,15 c 20.90999,0 39.01787,6.45148 54.33349,19.33154 -19.3075,0.005 -35.02962,7.17991 -46.66552,21.35986 -9.38675,11.47271 -14.93516,25.78214 -20.3169,39.63282 -10.88864,28.07683 -18.18943,44.13867 -41.59375,44.13867 v 26.05762 c -2.00507,-1.69234 -3.96929,-3.48249 -5.88232,-5.39551 -16.58332,-16.58332 -24.875,-36.62502 -24.875,-60.125 0,-23.66664 8.29168,-43.75002 24.875,-60.25 16.58332,-16.49998 36.62502,-24.75 60.125,-24.75 z m 54.35156,19.34717 c 2.01277,1.6936 3.98232,3.48671 5.89844,5.40283 16.49998,16.49998 24.75,36.58336 24.75,60.25 0,23.49998 -8.25002,43.54168 -24.75,60.125 -16.49998,16.58332 -36.58336,24.875 -60.25,24.875 -20.78064,0 -38.85202,-6.49594 -54.22412,-19.46338 19.34897,-0.005 35.07073,-7.17953 46.70654,-21.35938 7.46769,-9.13644 12.64078,-20.56752 17.06299,-31.62304 h 30.91358 v -26.07422 h -20.35841 c 7.88488,-16.93788 16.35357,-26.07422 34.25098,-26.07422 z"
       inkscape:label="path1"
       transform="translate(-86.715789)" />
  </g>
</svg>
