<?xml version="1.0" encoding="UTF-8" standalone="no"?>
<!-- Created with Inkscape (http://www.inkscape.org/) -->

<svg
   width="1500"
   height="500"
   viewBox="0 0 1500 500"
   version="1.1"
   id="svg1"
   inkscape:version="1.3.2 (091e20e, 2023-11-25, custom)"
   sodipodi:docname="othergames.svg"
   xmlns:inkscape="http://www.inkscape.org/namespaces/inkscape"
   xmlns:sodipodi="http://sodipodi.sourceforge.net/DTD/sodipodi-0.dtd"
   xmlns="http://www.w3.org/2000/svg"
   xmlns:svg="http://www.w3.org/2000/svg">
  <sodipodi:namedview
     id="namedview1"
     pagecolor="#505050"
     bordercolor="#ffffff"
     borderopacity="1"
     inkscape:showpageshadow="0"
     inkscape:pageopacity="0"
     inkscape:pagecheckerboard="1"
     inkscape:deskcolor="#505050"
     inkscape:document-units="px"
     inkscape:zoom="0.36572266"
     inkscape:cx="617.95461"
     inkscape:cy="304.87583"
     inkscape:window-width="2160"
     inkscape:window-height="1346"
     inkscape:window-x="-11"
     inkscape:window-y="-11"
     inkscape:window-maximized="1"
     inkscape:current-layer="svg1" />
  <defs
     id="defs1" />
  <rect
     style="fill:#211f21;paint-order:markers fill stroke;fill-opacity:1"
     id="rect1"
     width="1500"
     height="500"
     x="0"
     y="0" />
  <g
     id="g1"
     transform="translate(86.715789)">
    <text
       xml:space="preserve"
       style="font-style:normal;font-variant:normal;font-weight:normal;font-stretch:normal;font-size:120px;line-height:0.8;font-family:'Product Sans Black';-inkscape-font-specification:'Product Sans Black, ';text-align:center;text-anchor:middle;fill:#e6e1e3;fill-opacity:1;paint-order:markers fill stroke"
       x="773.40411"
       y="348.07999"
       id="text2"
       inkscape:label="text2"><tspan
         sodipodi:role="line"
         id="tspan1-8"
         x="773.40411"
         y="348.07999">GAMES</tspan></text>
    <text
       xml:space="preserve"
       style="font-style:normal;font-variant:normal;font-weight:normal;font-stretch:normal;font-size:120px;line-height:0.8;font-family:'Product Sans Black';-inkscape-font-specification:'Product Sans Black, ';text-align:center;text-anchor:middle;fill:#e6e1e3;fill-opacity:1;paint-order:markers fill stroke"
       x="759.724"
       y="237.84"
       id="text1"><tspan
         sodipodi:role="line"
         id="tspan1"
         x="759.724"
         y="237.84"
         style="font-size:120px">OTHER</tspan></text>
    <path
       d="m 442.02424,206.5 z m 43.5,43.5 z m -87,0 z m 43.5,43.5 z m 0,-58.5 -30,-30 v -55 h 60 v 55 z m 45,45 -30,-30 30,-30 h 55 v 60 z m -145,0 v -60 h 55 l 30,30 -30,30 z m 70,70 v -55 l 30,-30 30,30 v 55 z m 30,-143.5 10,-10 V 170 h -20 v 26.5 z m -80,53.5 h 26.5 l 10,-10 -10,-10 h -26.5 z m 70,70 h 20 v -26.5 l -10,-10 -10,10 z m 63.5,-70 h 26.5 v -20 h -26.5 l -10,10 z"
       id="path1"
       style="fill:#e6e1e3;fill-opacity:1;stroke-width:0.25" />
  </g>
</svg>
